<mxfile host="app.diagrams.net" modified="2022-08-23T06:35:26.294Z" agent="5.0 (Windows NT 10.0; Win64; x64) AppleWebKit/537.36 (KHTML, like Gecko) Chrome/104.0.0.0 Safari/537.36" etag="OPVhL1VEo174cjY4Hs7d" version="20.1.1" type="github">
  <diagram id="H8SOyEwutK1YIxnnxeyX" name="Page-1">
    <mxGraphModel dx="1727" dy="1033" grid="1" gridSize="10" guides="1" tooltips="1" connect="1" arrows="1" fold="1" page="1" pageScale="1" pageWidth="827" pageHeight="1169" math="0" shadow="0">
      <root>
        <mxCell id="0" />
        <mxCell id="1" parent="0" />
        <mxCell id="DfF9yQGB5fFhoyJbz4WP-9" value="Start" style="strokeWidth=2;html=1;shape=mxgraph.flowchart.terminator;whiteSpace=wrap;" parent="1" vertex="1">
          <mxGeometry x="160" y="40" width="100" height="50" as="geometry" />
        </mxCell>
        <mxCell id="DfF9yQGB5fFhoyJbz4WP-10" value="Coding" style="rounded=1;whiteSpace=wrap;html=1;absoluteArcSize=1;arcSize=14;strokeWidth=2;" parent="1" vertex="1">
          <mxGeometry x="160" y="110" width="100" height="50" as="geometry" />
        </mxCell>
        <mxCell id="DfF9yQGB5fFhoyJbz4WP-11" value="Push" style="rounded=1;whiteSpace=wrap;html=1;absoluteArcSize=1;arcSize=14;strokeWidth=2;" parent="1" vertex="1">
          <mxGeometry x="160" y="180" width="100" height="50" as="geometry" />
        </mxCell>
        <mxCell id="DfF9yQGB5fFhoyJbz4WP-12" value="Build &amp;amp; Test" style="rounded=1;whiteSpace=wrap;html=1;absoluteArcSize=1;arcSize=14;strokeWidth=2;" parent="1" vertex="1">
          <mxGeometry x="160" y="250" width="100" height="50" as="geometry" />
        </mxCell>
        <mxCell id="DfF9yQGB5fFhoyJbz4WP-13" value="Error" style="strokeWidth=2;html=1;shape=mxgraph.flowchart.decision;whiteSpace=wrap;" parent="1" vertex="1">
          <mxGeometry x="170" y="320" width="80" height="80" as="geometry" />
        </mxCell>
        <mxCell id="DfF9yQGB5fFhoyJbz4WP-14" value="Push Artifact Bucket" style="rounded=1;whiteSpace=wrap;html=1;absoluteArcSize=1;arcSize=14;strokeWidth=2;" parent="1" vertex="1">
          <mxGeometry x="160" y="430" width="100" height="50" as="geometry" />
        </mxCell>
        <mxCell id="DfF9yQGB5fFhoyJbz4WP-15" value="Deploy" style="rounded=1;whiteSpace=wrap;html=1;absoluteArcSize=1;arcSize=14;strokeWidth=2;" parent="1" vertex="1">
          <mxGeometry x="160" y="500" width="100" height="50" as="geometry" />
        </mxCell>
        <mxCell id="DfF9yQGB5fFhoyJbz4WP-16" value="End" style="strokeWidth=2;html=1;shape=mxgraph.flowchart.terminator;whiteSpace=wrap;" parent="1" vertex="1">
          <mxGeometry x="160" y="570" width="100" height="50" as="geometry" />
        </mxCell>
        <mxCell id="DfF9yQGB5fFhoyJbz4WP-17" value="" style="endArrow=classic;html=1;rounded=0;exitX=0.5;exitY=1;exitDx=0;exitDy=0;exitPerimeter=0;" parent="1" source="DfF9yQGB5fFhoyJbz4WP-9" target="DfF9yQGB5fFhoyJbz4WP-10" edge="1">
          <mxGeometry width="50" height="50" relative="1" as="geometry">
            <mxPoint x="340" y="420" as="sourcePoint" />
            <mxPoint x="390" y="370" as="targetPoint" />
          </mxGeometry>
        </mxCell>
        <mxCell id="DfF9yQGB5fFhoyJbz4WP-18" value="" style="endArrow=classic;html=1;rounded=0;exitX=0.5;exitY=1;exitDx=0;exitDy=0;" parent="1" source="DfF9yQGB5fFhoyJbz4WP-10" target="DfF9yQGB5fFhoyJbz4WP-11" edge="1">
          <mxGeometry width="50" height="50" relative="1" as="geometry">
            <mxPoint x="340" y="420" as="sourcePoint" />
            <mxPoint x="390" y="370" as="targetPoint" />
          </mxGeometry>
        </mxCell>
        <mxCell id="DfF9yQGB5fFhoyJbz4WP-19" value="" style="endArrow=classic;html=1;rounded=0;exitX=0.5;exitY=1;exitDx=0;exitDy=0;" parent="1" source="DfF9yQGB5fFhoyJbz4WP-11" target="DfF9yQGB5fFhoyJbz4WP-12" edge="1">
          <mxGeometry width="50" height="50" relative="1" as="geometry">
            <mxPoint x="340" y="420" as="sourcePoint" />
            <mxPoint x="390" y="370" as="targetPoint" />
          </mxGeometry>
        </mxCell>
        <mxCell id="DfF9yQGB5fFhoyJbz4WP-20" value="" style="endArrow=classic;html=1;rounded=0;exitX=0.5;exitY=1;exitDx=0;exitDy=0;" parent="1" source="DfF9yQGB5fFhoyJbz4WP-12" target="DfF9yQGB5fFhoyJbz4WP-13" edge="1">
          <mxGeometry width="50" height="50" relative="1" as="geometry">
            <mxPoint x="340" y="680" as="sourcePoint" />
            <mxPoint x="390" y="630" as="targetPoint" />
          </mxGeometry>
        </mxCell>
        <mxCell id="DfF9yQGB5fFhoyJbz4WP-22" value="" style="endArrow=classic;html=1;rounded=0;exitX=0;exitY=0.5;exitDx=0;exitDy=0;entryX=0;entryY=0.5;entryDx=0;entryDy=0;exitPerimeter=0;" parent="1" source="DfF9yQGB5fFhoyJbz4WP-13" target="DfF9yQGB5fFhoyJbz4WP-10" edge="1">
          <mxGeometry relative="1" as="geometry">
            <mxPoint x="310" y="390" as="sourcePoint" />
            <mxPoint x="410" y="390" as="targetPoint" />
            <Array as="points">
              <mxPoint x="90" y="360" />
              <mxPoint x="90" y="135" />
            </Array>
          </mxGeometry>
        </mxCell>
        <mxCell id="DfF9yQGB5fFhoyJbz4WP-23" value="Ya" style="edgeLabel;resizable=0;html=1;align=center;verticalAlign=middle;" parent="DfF9yQGB5fFhoyJbz4WP-22" connectable="0" vertex="1">
          <mxGeometry relative="1" as="geometry" />
        </mxCell>
        <mxCell id="DfF9yQGB5fFhoyJbz4WP-26" value="" style="endArrow=classic;html=1;rounded=0;entryX=0.5;entryY=0;entryDx=0;entryDy=0;exitX=0.5;exitY=1;exitDx=0;exitDy=0;exitPerimeter=0;" parent="1" source="DfF9yQGB5fFhoyJbz4WP-13" target="DfF9yQGB5fFhoyJbz4WP-14" edge="1">
          <mxGeometry relative="1" as="geometry">
            <mxPoint x="210" y="700" as="sourcePoint" />
            <mxPoint x="220" y="750" as="targetPoint" />
          </mxGeometry>
        </mxCell>
        <mxCell id="DfF9yQGB5fFhoyJbz4WP-27" value="Tidak" style="edgeLabel;resizable=0;html=1;align=center;verticalAlign=middle;" parent="DfF9yQGB5fFhoyJbz4WP-26" connectable="0" vertex="1">
          <mxGeometry relative="1" as="geometry" />
        </mxCell>
        <mxCell id="DfF9yQGB5fFhoyJbz4WP-28" value="" style="endArrow=classic;html=1;rounded=0;exitX=0.5;exitY=1;exitDx=0;exitDy=0;" parent="1" source="DfF9yQGB5fFhoyJbz4WP-14" target="DfF9yQGB5fFhoyJbz4WP-15" edge="1">
          <mxGeometry width="50" height="50" relative="1" as="geometry">
            <mxPoint x="90" y="1170" as="sourcePoint" />
            <mxPoint x="140" y="1120" as="targetPoint" />
          </mxGeometry>
        </mxCell>
        <mxCell id="DfF9yQGB5fFhoyJbz4WP-29" value="" style="endArrow=classic;html=1;rounded=0;exitX=0.5;exitY=1;exitDx=0;exitDy=0;" parent="1" source="DfF9yQGB5fFhoyJbz4WP-15" target="DfF9yQGB5fFhoyJbz4WP-16" edge="1">
          <mxGeometry width="50" height="50" relative="1" as="geometry">
            <mxPoint x="90" y="1170" as="sourcePoint" />
            <mxPoint x="140" y="1120" as="targetPoint" />
          </mxGeometry>
        </mxCell>
        <mxCell id="jwBqyly94Pi8m9Ygfbfe-1" value="Start" style="strokeWidth=2;html=1;shape=mxgraph.flowchart.terminator;whiteSpace=wrap;" vertex="1" parent="1">
          <mxGeometry x="560" y="50" width="100" height="50" as="geometry" />
        </mxCell>
        <mxCell id="jwBqyly94Pi8m9Ygfbfe-2" value="Coding" style="rounded=1;whiteSpace=wrap;html=1;absoluteArcSize=1;arcSize=14;strokeWidth=2;" vertex="1" parent="1">
          <mxGeometry x="560" y="115" width="100" height="50" as="geometry" />
        </mxCell>
        <mxCell id="jwBqyly94Pi8m9Ygfbfe-3" value="Push" style="rounded=1;whiteSpace=wrap;html=1;absoluteArcSize=1;arcSize=14;strokeWidth=2;" vertex="1" parent="1">
          <mxGeometry x="560" y="182" width="100" height="50" as="geometry" />
        </mxCell>
        <mxCell id="jwBqyly94Pi8m9Ygfbfe-4" value="Build &amp;amp; create image" style="rounded=1;whiteSpace=wrap;html=1;absoluteArcSize=1;arcSize=14;strokeWidth=2;" vertex="1" parent="1">
          <mxGeometry x="560" y="320" width="100" height="50" as="geometry" />
        </mxCell>
        <mxCell id="jwBqyly94Pi8m9Ygfbfe-5" value="Error" style="strokeWidth=2;html=1;shape=mxgraph.flowchart.decision;whiteSpace=wrap;" vertex="1" parent="1">
          <mxGeometry x="570" y="390" width="80" height="80" as="geometry" />
        </mxCell>
        <mxCell id="jwBqyly94Pi8m9Ygfbfe-6" value="Push Artifact Bucket" style="rounded=1;whiteSpace=wrap;html=1;absoluteArcSize=1;arcSize=14;strokeWidth=2;" vertex="1" parent="1">
          <mxGeometry x="500" y="497" width="100" height="50" as="geometry" />
        </mxCell>
        <mxCell id="jwBqyly94Pi8m9Ygfbfe-7" value="Deploy" style="rounded=1;whiteSpace=wrap;html=1;absoluteArcSize=1;arcSize=14;strokeWidth=2;" vertex="1" parent="1">
          <mxGeometry x="570" y="580" width="100" height="50" as="geometry" />
        </mxCell>
        <mxCell id="jwBqyly94Pi8m9Ygfbfe-8" value="End" style="strokeWidth=2;html=1;shape=mxgraph.flowchart.terminator;whiteSpace=wrap;" vertex="1" parent="1">
          <mxGeometry x="571" y="816" width="100" height="50" as="geometry" />
        </mxCell>
        <mxCell id="jwBqyly94Pi8m9Ygfbfe-9" value="" style="endArrow=classic;html=1;rounded=0;exitX=0.5;exitY=1;exitDx=0;exitDy=0;exitPerimeter=0;" edge="1" parent="1" source="jwBqyly94Pi8m9Ygfbfe-1" target="jwBqyly94Pi8m9Ygfbfe-2">
          <mxGeometry width="50" height="50" relative="1" as="geometry">
            <mxPoint x="740" y="430" as="sourcePoint" />
            <mxPoint x="790" y="380" as="targetPoint" />
          </mxGeometry>
        </mxCell>
        <mxCell id="jwBqyly94Pi8m9Ygfbfe-10" value="" style="endArrow=classic;html=1;rounded=0;exitX=0.5;exitY=1;exitDx=0;exitDy=0;" edge="1" parent="1" source="jwBqyly94Pi8m9Ygfbfe-2" target="jwBqyly94Pi8m9Ygfbfe-3">
          <mxGeometry width="50" height="50" relative="1" as="geometry">
            <mxPoint x="740" y="430" as="sourcePoint" />
            <mxPoint x="790" y="380" as="targetPoint" />
          </mxGeometry>
        </mxCell>
        <mxCell id="jwBqyly94Pi8m9Ygfbfe-11" value="" style="endArrow=classic;html=1;rounded=0;exitX=0.5;exitY=1;exitDx=0;exitDy=0;" edge="1" parent="1" source="jwBqyly94Pi8m9Ygfbfe-20" target="jwBqyly94Pi8m9Ygfbfe-4">
          <mxGeometry width="50" height="50" relative="1" as="geometry">
            <mxPoint x="610" y="320" as="sourcePoint" />
            <mxPoint x="790" y="380" as="targetPoint" />
          </mxGeometry>
        </mxCell>
        <mxCell id="jwBqyly94Pi8m9Ygfbfe-12" value="" style="endArrow=classic;html=1;rounded=0;exitX=0.5;exitY=1;exitDx=0;exitDy=0;" edge="1" parent="1" source="jwBqyly94Pi8m9Ygfbfe-4" target="jwBqyly94Pi8m9Ygfbfe-5">
          <mxGeometry width="50" height="50" relative="1" as="geometry">
            <mxPoint x="740" y="820" as="sourcePoint" />
            <mxPoint x="790" y="770" as="targetPoint" />
          </mxGeometry>
        </mxCell>
        <mxCell id="jwBqyly94Pi8m9Ygfbfe-13" value="" style="endArrow=classic;html=1;rounded=0;exitX=0;exitY=0.5;exitDx=0;exitDy=0;entryX=0;entryY=0.5;entryDx=0;entryDy=0;exitPerimeter=0;" edge="1" parent="1" source="jwBqyly94Pi8m9Ygfbfe-5" target="jwBqyly94Pi8m9Ygfbfe-2">
          <mxGeometry relative="1" as="geometry">
            <mxPoint x="710" y="400" as="sourcePoint" />
            <mxPoint x="810" y="400" as="targetPoint" />
            <Array as="points">
              <mxPoint x="490" y="430" />
              <mxPoint x="490" y="140" />
            </Array>
          </mxGeometry>
        </mxCell>
        <mxCell id="jwBqyly94Pi8m9Ygfbfe-14" value="Ya" style="edgeLabel;resizable=0;html=1;align=center;verticalAlign=middle;" connectable="0" vertex="1" parent="jwBqyly94Pi8m9Ygfbfe-13">
          <mxGeometry relative="1" as="geometry" />
        </mxCell>
        <mxCell id="jwBqyly94Pi8m9Ygfbfe-15" value="" style="endArrow=classic;html=1;rounded=0;exitX=0.5;exitY=1;exitDx=0;exitDy=0;exitPerimeter=0;entryX=0.502;entryY=-0.021;entryDx=0;entryDy=0;entryPerimeter=0;" edge="1" parent="1" source="jwBqyly94Pi8m9Ygfbfe-5" target="jwBqyly94Pi8m9Ygfbfe-6">
          <mxGeometry relative="1" as="geometry">
            <mxPoint x="610" y="800" as="sourcePoint" />
            <mxPoint x="550" y="530" as="targetPoint" />
            <Array as="points">
              <mxPoint x="610" y="480" />
              <mxPoint x="550" y="480" />
            </Array>
          </mxGeometry>
        </mxCell>
        <mxCell id="jwBqyly94Pi8m9Ygfbfe-16" value="Tidak" style="edgeLabel;resizable=0;html=1;align=center;verticalAlign=middle;" connectable="0" vertex="1" parent="jwBqyly94Pi8m9Ygfbfe-15">
          <mxGeometry relative="1" as="geometry">
            <mxPoint x="-13" y="-10" as="offset" />
          </mxGeometry>
        </mxCell>
        <mxCell id="jwBqyly94Pi8m9Ygfbfe-17" value="" style="endArrow=classic;html=1;rounded=0;exitX=0.5;exitY=1;exitDx=0;exitDy=0;" edge="1" parent="1" source="jwBqyly94Pi8m9Ygfbfe-6" target="jwBqyly94Pi8m9Ygfbfe-7">
          <mxGeometry width="50" height="50" relative="1" as="geometry">
            <mxPoint x="550" y="610" as="sourcePoint" />
            <mxPoint x="540" y="1220" as="targetPoint" />
            <Array as="points">
              <mxPoint x="550" y="560" />
              <mxPoint x="620" y="560" />
            </Array>
          </mxGeometry>
        </mxCell>
        <mxCell id="jwBqyly94Pi8m9Ygfbfe-19" value="Push Registry" style="rounded=1;whiteSpace=wrap;html=1;absoluteArcSize=1;arcSize=14;strokeWidth=2;" vertex="1" parent="1">
          <mxGeometry x="620" y="498" width="100" height="50" as="geometry" />
        </mxCell>
        <mxCell id="jwBqyly94Pi8m9Ygfbfe-20" value="Trigger pipeline" style="rounded=1;whiteSpace=wrap;html=1;absoluteArcSize=1;arcSize=14;strokeWidth=2;" vertex="1" parent="1">
          <mxGeometry x="560" y="251" width="100" height="50" as="geometry" />
        </mxCell>
        <mxCell id="jwBqyly94Pi8m9Ygfbfe-21" value="" style="endArrow=classic;html=1;rounded=0;exitX=0.5;exitY=1;exitDx=0;exitDy=0;entryX=0.5;entryY=0;entryDx=0;entryDy=0;" edge="1" parent="1" source="jwBqyly94Pi8m9Ygfbfe-3" target="jwBqyly94Pi8m9Ygfbfe-20">
          <mxGeometry width="50" height="50" relative="1" as="geometry">
            <mxPoint x="610.4100000000001" y="239.99999999999997" as="sourcePoint" />
            <mxPoint x="609.5810575139146" y="295.85" as="targetPoint" />
          </mxGeometry>
        </mxCell>
        <mxCell id="jwBqyly94Pi8m9Ygfbfe-23" value="" style="endArrow=classic;html=1;rounded=0;exitX=0.5;exitY=1;exitDx=0;exitDy=0;exitPerimeter=0;entryX=0.503;entryY=-0.027;entryDx=0;entryDy=0;entryPerimeter=0;" edge="1" parent="1" source="jwBqyly94Pi8m9Ygfbfe-5" target="jwBqyly94Pi8m9Ygfbfe-19">
          <mxGeometry width="50" height="50" relative="1" as="geometry">
            <mxPoint x="630" y="390" as="sourcePoint" />
            <mxPoint x="670" y="530" as="targetPoint" />
            <Array as="points">
              <mxPoint x="610" y="480" />
              <mxPoint x="670" y="480" />
            </Array>
          </mxGeometry>
        </mxCell>
        <mxCell id="jwBqyly94Pi8m9Ygfbfe-25" value="start new kontainer" style="rounded=1;whiteSpace=wrap;html=1;absoluteArcSize=1;arcSize=14;strokeWidth=2;" vertex="1" parent="1">
          <mxGeometry x="510" y="731" width="100" height="50" as="geometry" />
        </mxCell>
        <mxCell id="jwBqyly94Pi8m9Ygfbfe-26" value="kill old kontainer" style="rounded=1;whiteSpace=wrap;html=1;absoluteArcSize=1;arcSize=14;strokeWidth=2;" vertex="1" parent="1">
          <mxGeometry x="630" y="731" width="100" height="50" as="geometry" />
        </mxCell>
        <mxCell id="jwBqyly94Pi8m9Ygfbfe-24" value="create new kontainer" style="rounded=1;whiteSpace=wrap;html=1;absoluteArcSize=1;arcSize=14;strokeWidth=2;" vertex="1" parent="1">
          <mxGeometry x="570" y="646" width="100" height="50" as="geometry" />
        </mxCell>
        <mxCell id="jwBqyly94Pi8m9Ygfbfe-27" value="" style="endArrow=classic;html=1;rounded=0;exitX=0.5;exitY=1;exitDx=0;exitDy=0;startArrow=none;startFill=0;endFill=1;" edge="1" parent="1" source="jwBqyly94Pi8m9Ygfbfe-7" target="jwBqyly94Pi8m9Ygfbfe-24">
          <mxGeometry width="50" height="50" relative="1" as="geometry">
            <mxPoint x="600" y="690" as="sourcePoint" />
            <mxPoint x="600" y="840" as="targetPoint" />
          </mxGeometry>
        </mxCell>
        <mxCell id="jwBqyly94Pi8m9Ygfbfe-29" value="" style="endArrow=classic;html=1;rounded=0;exitX=0.5;exitY=1;exitDx=0;exitDy=0;exitPerimeter=0;entryX=0.502;entryY=-0.021;entryDx=0;entryDy=0;entryPerimeter=0;" edge="1" parent="1">
          <mxGeometry relative="1" as="geometry">
            <mxPoint x="620.85" y="696" as="sourcePoint" />
            <mxPoint x="561.0500000000001" y="729.95" as="targetPoint" />
            <Array as="points">
              <mxPoint x="620.85" y="716" />
              <mxPoint x="560.85" y="716" />
            </Array>
          </mxGeometry>
        </mxCell>
        <mxCell id="jwBqyly94Pi8m9Ygfbfe-31" value="" style="endArrow=classic;html=1;rounded=0;exitX=0.5;exitY=1;exitDx=0;exitDy=0;exitPerimeter=0;entryX=0.503;entryY=-0.027;entryDx=0;entryDy=0;entryPerimeter=0;" edge="1" parent="1">
          <mxGeometry width="50" height="50" relative="1" as="geometry">
            <mxPoint x="620.85" y="696" as="sourcePoint" />
            <mxPoint x="681.15" y="730.6500000000001" as="targetPoint" />
            <Array as="points">
              <mxPoint x="620.85" y="716" />
              <mxPoint x="680.85" y="716" />
            </Array>
          </mxGeometry>
        </mxCell>
        <mxCell id="jwBqyly94Pi8m9Ygfbfe-32" value="" style="endArrow=classic;html=1;rounded=0;exitX=0.5;exitY=1;exitDx=0;exitDy=0;entryX=0.5;entryY=0;entryDx=0;entryDy=0;entryPerimeter=0;" edge="1" parent="1" target="jwBqyly94Pi8m9Ygfbfe-8">
          <mxGeometry width="50" height="50" relative="1" as="geometry">
            <mxPoint x="560" y="781" as="sourcePoint" />
            <mxPoint x="610" y="816" as="targetPoint" />
            <Array as="points">
              <mxPoint x="560" y="796" />
              <mxPoint x="621" y="796" />
            </Array>
          </mxGeometry>
        </mxCell>
      </root>
    </mxGraphModel>
  </diagram>
</mxfile>
